<?xml version="1.0" encoding="utf-8"?>
<!-- Generator: Adobe Illustrator 16.0.0, SVG Export Plug-In . SVG Version: 6.00 Build 0)  -->
<!DOCTYPE svg PUBLIC "-//W3C//DTD SVG 1.1//EN" "http://www.w3.org/Graphics/SVG/1.1/DTD/svg11.dtd">
<svg version="1.1" id="Ebene_1" xmlns="http://www.w3.org/2000/svg" xmlns:xlink="http://www.w3.org/1999/xlink" x="0px" y="0px"
	 width="323px" height="44px" viewBox="0 0 323 44" enable-background="new 0 0 323 44" xml:space="preserve">
<g>
	<path fill="#FFFFFF" d="M137.605,37.367h5.018V17.413c0-8.868-6.301-10.27-15.635-10.27h-7.938c-8.984,0-12.426,2.219-12.426,7.645
		v1.459h5.018v-1.051c0-2.45,1.226-3.968,7.526-3.968h7.353c7.699,0,11.084,0.699,11.084,6.067v5.604h-0.116
		c-1.75-2.859-4.085-3.562-10.618-3.562h-8.051c-8.752,0-13.536,0.817-13.536,7.584v1.983c0,5.601,1.983,8.926,9.569,8.926h12.018
		c7.701,0,9.275-0.758,10.618-3.441h0.116V37.367L137.605,37.367z M137.605,29.374c0,3.733-3.5,4.375-12.603,4.375h-6.649
		c-6.886,0-8.053-1.399-8.053-4.726v-0.936c0-3.73,1.809-4.667,8.284-4.667h7.701c7.7,0,11.317,0.524,11.317,4.609L137.605,29.374
		L137.605,29.374z"/>
	<path fill="#FFFFFF" d="M183.24,19.28h-28.062c0.469-6.771,2.333-8.052,10.271-8.052h7.352c8.168,0,10.443,3.033,10.443,6.067
		L183.24,19.28L183.24,19.28z M150.16,25.641c0,10.969,7.468,12.192,14.002,12.192h9.104c9.334,0,14.992-2.042,14.992-8.868v-0.583
		h-5.018c-0.293,4.55-2.859,5.367-9.16,5.367h-6.887c-8.75,0-12.019-1.75-12.019-8.519v-1.866h33.08v-3.325
		c0-10.619-6.478-12.896-15.461-12.896h-8.052c-7.117,0-14.585,1.227-14.585,12.021L150.16,25.641L150.16,25.641z"/>
	<polygon fill="#FFFFFF" points="191.418,37.367 198.594,37.367 211.254,24.473 223.915,37.367 231.091,37.367 214.812,21.498 
		228.934,7.612 222.049,7.612 211.254,18.521 200.462,7.612 193.577,7.612 207.693,21.498 	"/>
	<path fill="#FFFFFF" d="M267.564,19.28h-28.063c0.467-6.771,2.335-8.052,10.271-8.052h7.353c8.167,0,10.442,3.033,10.442,6.067
		L267.564,19.28L267.564,19.28z M234.482,25.641c0,10.969,7.47,12.192,14.002,12.192h9.103c9.336,0,14.995-2.042,14.995-8.868
		v-0.583h-5.018c-0.293,4.55-2.859,5.367-9.159,5.367h-6.886c-8.752,0-12.021-1.75-12.021-8.519v-1.866h33.081v-3.325
		c0-10.619-6.479-12.896-15.461-12.896h-8.052c-7.117,0-14.586,1.227-14.586,12.021v6.477H234.482z"/>
	<path fill="#FFFFFF" d="M311.682,37.367h5.02V17.413c0-8.868-6.301-10.27-15.639-10.27h-7.934c-8.984,0-12.427,2.219-12.427,7.645
		v1.459h5.017v-1.051c0-2.45,1.229-3.968,7.526-3.968h7.353c7.7,0,11.084,0.699,11.084,6.067v5.604h-0.115
		c-1.75-2.859-4.084-3.562-10.617-3.562h-8.055c-8.75,0-13.533,0.817-13.533,7.584v1.983c0,5.601,1.981,8.926,9.566,8.926h12.021
		c7.701,0,9.273-0.758,10.617-3.441h0.115V37.367L311.682,37.367z M311.682,29.374c0,3.733-3.5,4.375-12.603,4.375h-6.651
		c-6.884,0-8.051-1.399-8.051-4.726v-0.936c0-3.73,1.809-4.667,8.284-4.667h7.7c7.701,0,11.316,0.524,11.316,4.609L311.682,29.374
		L311.682,29.374z"/>
	<polygon fill="#85B46C" points="76.725,37.785 48.721,37.785 35.271,24.333 35.271,20.485 48.654,7.104 76.725,7.104 
		61.372,22.427 	"/>
	<polygon fill="#85B46C" points="6.025,37.785 17.407,37.785 30.855,24.333 30.855,20.485 17.475,7.104 6.025,7.104 21.377,22.427 	
		"/>
</g>
</svg>
